<svg width="67" height="67" viewBox="0 0 67 67" fill="none" xmlns="http://www.w3.org/2000/svg">
<path d="M16.6202 36.584C16.4102 36.0272 15.9202 35.54 15.3602 35.3312C14.8002 35.1224 14.1002 35.1224 13.5402 35.3312C12.5602 35.7488 12.0002 36.7928 12.1402 37.8368L12.2102 38.3936C12.6302 41.3864 13.3302 44.3096 14.2402 47.1632L15.1502 49.808C15.2902 50.2256 15.2202 50.6432 15.0102 50.9912C14.8702 51.4088 14.5202 51.6872 14.1002 51.7568C13.6802 51.896 13.2602 51.8264 12.9102 51.6176C12.4902 51.4784 12.2102 51.1304 12.1402 50.7128L11.3002 48.2768C10.2502 45.1448 9.48024 41.8736 9.06024 38.672L8.99024 38.324C8.64024 35.888 9.97024 33.5216 12.2102 32.4776C12.4202 32.408 12.6302 32.3384 12.8402 32.2688L12.4202 23.2904C12.3502 22.2464 11.7202 21.272 10.7402 20.924C10.0402 20.6456 9.20024 20.6456 8.50024 20.924C7.80024 21.272 7.24024 21.8288 7.03024 22.5944L0.380243 43.196C-0.249757 45.0752 -0.109757 47.1632 0.800243 48.9728L5.35024 58.4384C5.63024 58.9952 5.70024 59.6912 5.49024 60.3176L3.32024 66.9296H18.0202L22.1502 53.9144C22.5702 52.4528 22.4302 50.852 21.8702 49.46L16.6202 36.584Z" fill="white"/>
<path d="M65.2705 48.9728C66.1805 47.1632 66.3205 45.0752 65.6905 43.196L59.1105 22.5944C58.9005 21.8288 58.3405 21.272 57.6405 20.924C56.9405 20.576 56.1005 20.576 55.4005 20.924C54.4205 21.3416 53.7905 22.2464 53.7205 23.2904L53.2305 32.2688C53.4405 32.3384 53.6505 32.408 53.8605 32.4776C56.1705 33.452 57.4305 35.888 57.0805 38.324L56.9405 38.672C56.4505 41.9432 55.7505 45.1448 54.7005 48.2768L53.8605 50.7824C53.7205 51.2 53.4405 51.4784 53.0905 51.6872C52.6705 51.896 52.2505 51.896 51.9005 51.7568C51.4805 51.6176 51.2005 51.3392 50.9905 50.9912C50.7805 50.6432 50.7805 50.2256 50.9205 49.808L51.8305 47.1632C52.7405 44.3096 53.4405 41.3864 53.8605 38.3936L53.9305 37.8368C54.0705 36.7928 53.5105 35.7488 52.5305 35.3312C51.9705 35.0528 51.3405 35.0528 50.7105 35.3312C50.1505 35.6096 49.6605 36.0272 49.4505 36.584L44.2005 49.3904C43.6405 50.7824 43.5005 52.3832 43.9205 53.8448L48.0505 66.86H62.7505L60.5105 60.248C60.3005 59.6216 60.3705 58.9952 60.6505 58.3688L65.2705 48.9728Z" fill="white"/>
<path d="M39.5801 21.2024C39.6501 21.2024 39.6501 21.2024 39.5801 21.2024L48.6101 10.832C49.5201 9.71839 49.4501 8.11759 48.3301 7.14319C47.2101 6.16879 45.6001 6.30799 44.6201 7.42159L38.3901 14.66C37.7601 15.4256 36.7801 15.8432 35.7301 15.8432H30.2701C29.2201 15.8432 28.3101 15.4256 27.6101 14.66L21.3801 7.42159C20.4001 6.30799 18.7901 6.23839 17.6701 7.14319C16.5501 8.04799 16.4801 9.71839 17.3901 10.832L26.3501 21.1328L26.4201 21.2024L23.0601 31.2944C22.6401 32.4776 23.5501 33.8 24.8801 33.8H26.4201L25.5101 41.8736C25.3701 43.3352 26.3501 44.588 27.8201 44.7968C29.2901 44.936 30.5501 43.9616 30.7601 42.5L31.7401 34.148C31.7401 33.9392 31.8801 33.8696 32.0901 33.8696H34.0501C34.2601 33.8696 34.4001 34.0088 34.4001 34.148L35.3801 42.5C35.5201 43.8224 36.6401 44.7968 37.9701 44.7968C38.0401 44.7968 38.1801 44.7968 38.2501 44.7968C39.7201 44.6576 40.7001 43.3352 40.5601 41.8736L39.5801 33.8H41.1201C42.3801 33.8 43.2901 32.5472 42.9401 31.2944L39.5801 21.2024Z" fill="white"/>
<path d="M33.0004 13.4072C36.5184 13.4072 39.3704 10.5715 39.3704 7.07359C39.3704 3.57564 36.5184 0.73999 33.0004 0.73999C29.4823 0.73999 26.6304 3.57564 26.6304 7.07359C26.6304 10.5715 29.4823 13.4072 33.0004 13.4072Z" fill="white"/>
</svg>
