<svg width="80" height="70" viewBox="0 0 80 70" fill="none" xmlns="http://www.w3.org/2000/svg">
<path d="M65.3801 5.47901C65.3801 5.47907 65.3801 2.11438 65.3801 2.11438C65.3829 0.653799 67.6056 0.580949 67.6469 2.11438V5.47907C67.6287 6.96256 65.4114 6.97423 65.3801 5.47901ZM56.4105 5.47907V2.11438C56.379 0.575004 54.1414 0.656502 54.1349 2.11438C54.1349 2.11438 54.1349 5.47907 54.1349 5.47901C54.1535 6.93635 56.3824 6.99364 56.4105 5.47907ZM45.1829 5.47907V2.11438C45.1418 0.57776 42.9101 0.652772 42.9074 2.11438C42.9074 2.11438 42.9074 5.47907 42.9074 5.47901C42.9375 6.9711 45.1576 6.96472 45.1829 5.47907ZM33.9467 5.47907V2.11438C33.9141 0.623697 31.7053 0.60743 31.671 2.11438C31.671 2.11438 31.671 5.47907 31.671 5.47901C31.6838 6.96699 33.9463 6.95791 33.9467 5.47907ZM22.7104 5.47907V2.11438C22.6772 0.575328 20.4407 0.657096 20.4347 2.11438C20.4347 2.11438 20.4347 5.47907 20.4347 5.47901C20.4509 6.93527 22.6859 6.99218 22.7104 5.47907ZM79.3347 8.17967C79.3347 6.2494 77.7675 4.6822 75.8372 4.6822H69.4177C69.9188 9.59518 63.1095 9.60507 63.6092 4.6822H58.1814C58.6804 9.60258 51.8731 9.59604 52.364 4.6822H46.9538C47.4517 9.59275 40.6311 9.60918 41.1365 4.6822H35.7176C36.2199 9.59713 29.3981 9.60534 29.9001 4.6822H24.4813C24.9841 9.59788 18.1678 9.60069 18.6638 4.6822H14.6616C12.7402 4.6822 11.173 6.2494 11.173 8.17967V13.395H79.3347V8.17967ZM0.733497 62.7056C0.547588 63.591 0.698045 64.4145 1.17622 64.9989C1.61008 65.539 2.27417 65.8312 3.06223 65.8312H11.3677V15.1747H10.9959L0.733497 62.7056ZM79.3436 15.1747V65.6187C79.3436 67.487 77.8206 69.0099 75.9434 69.0099C75.9434 69.0099 16.5211 69.0099 16.5211 69.0099C14.6863 69.0333 13.1272 67.4614 13.1386 65.6187V15.1747H79.3436ZM33.7342 26.4731C33.7342 27.6861 34.7259 28.6778 35.9389 28.6778H41.11C42.3318 28.6778 43.3148 27.6861 43.3148 26.4731V21.2932C43.3148 20.0801 42.3318 19.0973 41.11 19.0973H35.9389C34.7259 19.0973 33.7342 20.0801 33.7342 21.2932V26.4731ZM27.8283 55.0819C27.8283 53.8688 26.8453 52.8771 25.6235 52.8771H20.4524C19.2305 52.8771 18.2477 53.8688 18.2477 55.0819V60.2617C18.2477 61.4748 19.2305 62.4665 20.4524 62.4665H25.6235C26.8453 62.4665 27.8283 61.4748 27.8283 60.2617V55.0819ZM27.8283 38.1875C27.8283 36.9745 26.8453 35.9828 25.6235 35.9828H20.4524C19.2305 35.9828 18.2477 36.9745 18.2477 38.1875V43.3674C18.2477 44.5805 19.2305 45.5722 20.4524 45.5722H25.6235C26.8453 45.5722 27.8283 44.5805 27.8283 43.3674V38.1875ZM27.8283 21.2932C27.8283 20.0801 26.8453 19.0973 25.6235 19.0973H20.4524C19.2305 19.0973 18.2477 20.0801 18.2477 21.2932V26.4731C18.2477 27.6861 19.2305 28.6778 20.4524 28.6778H25.6235C26.8453 28.6778 27.8283 27.6861 27.8283 26.4731V21.2932ZM43.3148 55.0819C43.3148 53.8688 42.3318 52.8771 41.11 52.8771H35.9389C34.7259 52.8771 33.7342 53.8688 33.7342 55.0819V60.2617C33.7342 61.4748 34.7259 62.4665 35.9389 62.4665H41.11C42.3318 62.4665 43.3148 61.4748 43.3148 60.2617V55.0819ZM43.3148 42.5616C43.3148 42.0658 42.9251 41.6762 42.4293 41.6762C41.9423 41.6762 41.5439 42.0658 41.5439 42.5616V43.3674C41.5439 43.6064 41.349 43.8013 41.11 43.8013H35.9389C35.6998 43.8013 35.5051 43.6064 35.5051 43.3674V38.1875C35.5051 37.9485 35.6998 37.7537 35.9389 37.7537H41.11C42.2701 37.7549 42.27 35.9879 41.11 35.9828H35.9389C34.7259 35.9828 33.7342 36.9745 33.7342 38.1875V43.3674C33.7342 44.5805 34.7259 45.5722 35.9389 45.5722H41.11C42.3318 45.5722 43.3148 44.5805 43.3148 43.3674V42.5616ZM45.0059 35.7703L40.0208 40.7642C40.0208 40.7642 37.878 38.6214 37.878 38.6214C37.0487 37.8094 35.8079 39.0459 36.6207 39.8699L39.3922 42.6413C39.5605 42.8096 39.7907 42.8981 40.0208 42.8981C40.2422 42.8981 40.4724 42.8096 40.6407 42.6413L46.2544 37.0276C47.0671 36.2068 45.8312 34.9536 45.0059 35.7703ZM74.8809 61.1295C74.8809 61.1295 74.8809 56.6845 74.8809 56.6846C74.9695 50.8244 70.6199 45.375 64.8841 44.1731V42.721C67.0447 41.8533 68.7359 40.0204 69.4087 37.7537C72.5835 33.2122 71.0463 25.9182 66.2478 23.3386C65.9585 16.942 58.1604 16.926 57.8626 23.3297C53.0594 25.9212 51.5308 33.2002 54.6926 37.7537C55.3833 40.047 57.0392 41.8533 59.2174 42.721V44.1731C53.4586 45.4074 49.1619 50.8031 49.2206 56.6845V61.1295C49.2206 61.6165 49.619 62.0149 50.1061 62.0149H73.9954C74.4825 62.0149 74.8809 61.6165 74.8809 61.1295ZM66.2035 46.431C65.451 46.13 64.6717 45.9086 63.8571 45.7758C63.4321 45.705 63.1133 45.3331 63.1133 44.8992V43.2169C62.4208 43.3082 61.6891 43.31 60.9883 43.208V44.8992C60.9883 45.3331 60.6783 45.705 60.2444 45.7758C59.4476 45.9086 58.6595 46.13 57.9069 46.431C60.2681 48.3163 63.8332 48.3095 66.2035 46.431ZM67.6999 37.3198C67.7973 37.0099 67.4697 36.2395 67.39 35.9119C67.0631 34.6953 66.7234 33.3736 65.7696 32.4941C65.1676 31.954 64.3353 31.892 63.5826 31.7237C62.4208 31.4912 61.3341 31.0143 60.3419 30.3779C59.2982 32.8832 56.6241 34.4266 56.4016 37.3108C58.1366 42.8568 65.9791 42.8677 67.6999 37.3198ZM64.3706 22.5063C63.7002 19.5547 60.4092 19.5534 59.7309 22.5063C61.2546 22.0905 62.8506 22.0932 64.3706 22.5063ZM59.6867 28.0491C60.4841 27.9101 61.0849 28.8085 61.7586 29.1471C62.5721 29.5871 63.4546 29.8647 64.3618 30.0415C66.8327 30.3368 68.3012 32.4821 68.9041 34.7343C69.1787 33.8754 69.3203 32.9722 69.3203 32.0425C69.479 26.6778 64.0878 22.1654 59.1465 24.6314C55.6384 26.2397 53.9055 31.0404 55.224 34.814C56.1272 32.5006 58.4757 31.213 59.0049 28.7132C59.0851 28.3949 59.3462 28.1088 59.6867 28.0491ZM35.9389 26.9069H41.11C41.349 26.9069 41.5439 26.7121 41.5439 26.4731V21.2932C41.5439 21.0541 41.349 20.8682 41.11 20.8682H35.9389C35.6998 20.8682 35.5051 21.0541 35.5051 21.2932V26.4731C35.5051 26.7121 35.6998 26.9069 35.9389 26.9069ZM25.6235 20.8682H20.4524C20.2134 20.8682 20.0186 21.0541 20.0186 21.2932V26.4731C20.0186 26.7121 20.2134 26.9069 20.4524 26.9069H25.6235C25.8625 26.9069 26.0574 26.7121 26.0574 26.4731V21.2932C26.0574 21.0541 25.8625 20.8682 25.6235 20.8682ZM25.6235 37.7537H20.4524C20.2134 37.7537 20.0186 37.9485 20.0186 38.1875V43.3674C20.0186 43.6064 20.2134 43.8013 20.4524 43.8013H25.6235C25.8625 43.8013 26.0574 43.6064 26.0574 43.3674V38.1875C26.0574 37.9485 25.8625 37.7537 25.6235 37.7537ZM41.11 54.648H35.9389C35.6998 54.648 35.5051 54.8428 35.5051 55.0819V60.2617C35.5051 60.5008 35.6998 60.6956 35.9389 60.6956H41.11C41.349 60.6956 41.5439 60.5008 41.5439 60.2617V55.0819C41.5439 54.8428 41.349 54.648 41.11 54.648ZM25.6235 54.648H20.4524C20.2134 54.648 20.0186 54.8428 20.0186 55.0819V60.2617C20.0186 60.5008 20.2134 60.6956 20.4524 60.6956H25.6235C25.8625 60.6956 26.0574 60.5008 26.0574 60.2617V55.0819C26.0574 54.8428 25.8625 54.648 25.6235 54.648ZM67.9124 47.2988C64.7659 50.3893 59.3565 50.3698 56.198 47.2988C52.9749 49.3176 50.9915 52.8505 50.9915 56.6845V60.244H73.11V56.6845C73.1377 52.8951 71.1147 49.2955 67.9124 47.2988Z" fill="#4D45D6"/>
</svg>
