<svg xmlns="http://www.w3.org/2000/svg" width="900" height="426" fill="none" viewBox="0 0 900 426">
  <path fill="#02AAB6" d="M.46 390.024c-.24 13.18 8.299 23.866 21.89 23.675 10.704 0 17.559-5.952 19.724-13.63l-6.255-2.367c-2.044 6.143-5.652 10.109-13.47 10.109-9.02 0-15.033-7.102-15.033-17.851 0-10.558 6.013-17.021 15.034-17.021 3.848 0 6.855.96 8.9 2.944 2.044 1.919 3.488 4.159 4.33 6.783l6.494-2.304c-1.925-6.719-8.78-13.246-19.724-13.246C9.6 366.861.22 377.162.46 390.024Zm48.71 11.901c0 7.231 3.608 11.774 10.584 11.774 5.412 0 8.42-3.455 10.103-8.319h3.367c-1.684 2.56-2.887 5.375-2.887 7.422h5.653v-31.736h-6.013v13.821c0 4.607-.362 8.446-2.887 11.454-1.203 1.47-3.007 2.174-5.413 2.174-4.089 0-6.493-2.494-6.493-8.062v-19.387H49.17v20.859Zm37.043-26.746h6.374v-7.166h-6.374v7.166Zm.24 37.623h6.014v-31.736h-6.013v31.736Zm14.072-15.932c0 10.302 5.653 16.829 12.99 16.829 6.254 0 8.779-4.096 10.223-7.743h3.487c-1.564 2.048-2.886 4.99-2.886 6.846h5.412v-44.789h-6.013v7.358c0 6.079 1.322 9.406 3.487 12.541h-3.487c-1.804-5.183-5.172-7.742-10.223-7.742-7.337 0-12.99 6.526-12.99 16.7Zm23.573 0c0 7.679-3.728 11.709-8.779 11.709-5.413 0-8.54-3.519-8.54-11.709 0-7.742 2.887-11.581 8.54-11.581 5.171 0 8.779 3.839 8.779 11.581Zm14.074 7.742c0 5.631 3.968 9.087 10.102 9.087 5.292 0 8.66-3.137 9.862-7.551h2.406c0 5.055 1.323 6.654 6.134 6.654h2.645v-5.182h-3.246c-1.564 0-1.925-.32-1.925-1.792v-14.525c0-6.974-4.33-11.134-12.629-11.134-8.058 0-12.868 4.352-13.951 8.895l5.653 1.92c1.203-3.839 3.969-5.759 8.298-5.759 4.571 0 6.615 2.111 6.615 5.887v.959c-5.893.447-10.824 1.664-14.432 3.647-3.608 1.92-5.532 4.864-5.532 8.894Zm19.964-4.927c0 6.079-3.849 9.087-8.058 9.087-3.849 0-5.652-1.792-5.652-4.671 0-4.607 5.291-6.847 13.71-7.679v3.263Zm14.432-2.815c0 10.302 5.653 16.829 12.989 16.829 6.255 0 8.78-4.096 10.224-7.743h3.488c-1.564 2.048-2.887 4.99-2.887 6.846h5.412v-44.789h-6.013v7.358c0 6.079 1.323 9.406 3.488 12.541h-3.488c-1.804-5.183-5.172-7.742-10.224-7.742-7.336 0-12.989 6.526-12.989 16.7Zm23.574 0c0 7.679-3.729 11.709-8.78 11.709-5.292 0-8.539-3.519-8.539-11.709 0-7.742 2.886-11.581 8.539-11.581 5.171 0 8.78 3.839 8.78 11.581Zm13.59.064c0 9.534 6.615 16.765 15.154 16.765 8.54 0 15.034-7.167 15.034-16.765 0-9.534-6.374-16.765-15.034-16.765-8.659 0-15.154 7.231-15.154 16.765Zm23.934.128c0 7.486-3.368 11.453-8.78 11.453-5.412 0-8.779-3.967-8.779-11.453 0-7.742 3.367-11.709 8.779-11.709 5.292 0 8.78 3.967 8.78 11.709Zm30.67 28.218h6.014v-6.783c-.121-6.463-1.564-9.278-3.609-12.542h3.489c1.804 5.184 5.291 7.744 10.343 7.744 7.457 0 12.869-6.527 12.869-16.765 0-10.174-5.412-16.765-12.869-16.765-6.375 0-8.78 4.096-10.343 7.742h-3.248c1.323-1.983 2.766-4.99 2.766-6.845h-5.412v44.214Zm22.852-28.282c0 7.742-2.766 11.581-8.539 11.581-5.052 0-8.66-3.839-8.66-11.581 0-7.551 3.608-11.709 8.66-11.709 5.412 0 8.539 3.519 8.539 11.709Zm14.433 15.804h6.014v-14.14c0-7.743 3.007-11.837 9.983-11.837 1.083 0 2.165.127 3.368.32v-6.208a13.31 13.31 0 0 0-3.007-.32c-5.894 0-8.901 3.584-10.464 9.534h-3.488c1.804-2.815 3.368-6.463 3.368-9.085h-5.774v31.736Zm22.129-15.868c0 9.534 6.615 16.765 15.034 16.765 8.66 0 15.154-7.167 15.154-16.765 0-9.534-6.374-16.765-15.154-16.765-8.66 0-15.034 7.231-15.034 16.765Zm23.935.128c0 7.486-3.489 11.453-8.901 11.453s-8.78-3.967-8.78-11.453c0-7.742 3.488-11.709 8.78-11.709s8.901 3.967 8.901 11.709Zm16.476 15.74h6.014v-26.745h8.179v-4.991h-8.179v-4.735c0-2.24.963-3.136 3.128-3.136h6.254v-5.182H372.1c-5.292 0-7.939 2.815-7.939 8.381v4.672h-6.854v4.991h6.854v26.745Zm17.319-15.74c0 10.622 5.774 16.637 14.674 16.637 6.615 0 11.666-3.2 13.951-9.151l-5.532-1.983c-1.323 3.135-3.729 6.078-8.299 6.078-4.811 0-8.539-3.07-8.78-10.173h22.25c.241-.961.241-1.856.241-2.624 0-9.021-5.533-15.677-14.072-15.677-8.419 0-14.433 6.656-14.433 16.893Zm6.134-3.392c.481-5.375 3.969-8.701 8.299-8.701s7.698 3.199 7.818 8.701h-16.117Zm27.663 10.942c1.203 5.823 7.097 9.087 13.953 9.087 8.058 0 12.989-3.776 12.989-9.855 0-3.071-1.082-5.311-3.368-6.782-2.165-1.472-4.69-2.495-7.457-3.007l-3.728-.769c-4.329-.895-5.412-1.919-5.412-4.094 0-2.24 2.044-4.287 6.133-4.287 4.451 0 6.736 2.495 7.698 5.375l5.292-2.048c-1.444-4.607-5.653-8.063-12.87-8.063-6.735 0-12.027 3.968-12.027 9.662 0 5.824 4.09 7.935 9.984 9.15l3.847.704c4.21.832 5.774 2.367 5.774 4.671 0 2.816-2.405 4.416-6.855 4.416-4.811 0-7.337-2.432-8.3-6.016l-5.653 1.856Zm34.518-29.433h6.374v-7.166h-6.374v7.166Zm.241 37.623h6.013v-31.736h-6.013v31.736Zm13.952-15.868c0 9.534 6.616 16.765 15.155 16.765 8.54 0 15.034-7.167 15.034-16.765 0-9.534-6.374-16.765-15.034-16.765-8.78 0-15.155 7.231-15.155 16.765Zm23.935.128c0 7.486-3.488 11.453-8.78 11.453-5.532 0-8.9-3.967-8.9-11.453 0-7.742 3.488-11.709 8.9-11.709 5.172 0 8.78 3.967 8.78 11.709Zm14.311 15.74h6.014V399.11c0-4.607.24-8.382 2.766-11.39 1.203-1.536 3.127-2.303 5.653-2.303 4.21 0 6.735 2.559 6.735 7.998v19.387h6.013v-20.731c0-7.422-3.608-11.902-11.065-11.902-5.653 0-9.141 4.544-10.223 8.255h-3.248c1.684-2.623 3.128-5.567 3.128-7.358h-5.773v31.736Zm35.119-8.19c0 5.631 3.97 9.087 10.104 9.087 5.412 0 8.659-3.137 9.862-7.551h2.406c0 5.055 1.322 6.654 6.133 6.654h2.646v-5.182h-3.247c-1.564 0-1.924-.32-1.924-1.792v-14.525c0-6.974-4.21-11.134-12.629-11.134-8.058 0-12.749 4.352-13.952 8.895l5.653 1.92c1.203-3.839 3.969-5.759 8.299-5.759 4.571 0 6.615 2.111 6.615 5.887v.959c-5.893.447-10.824 1.664-14.432 3.647-3.609 1.92-5.534 4.864-5.534 8.894Zm19.966-4.927c0 6.079-3.849 9.087-8.058 9.087-3.849 0-5.653-1.792-5.653-4.671 0-4.607 5.292-6.847 13.711-7.679v3.263Zm22.854-31.672h-6.015v44.79h6.015v-44.79Zm24.773 36.599c0 5.631 3.849 9.087 10.103 9.087 5.292 0 8.54-3.137 9.863-7.551h2.405c0 5.055 1.203 6.654 6.014 6.654h2.645v-5.182h-3.247c-1.443 0-1.804-.32-1.804-1.792v-14.525c0-6.974-4.33-11.134-12.749-11.134-8.059 0-12.749 4.352-13.951 8.895l5.653 1.92c1.202-3.839 4.088-5.759 8.298-5.759 4.57 0 6.736 2.111 6.736 5.887v.959c-6.014.447-10.826 1.664-14.554 3.647-3.608 1.92-5.412 4.864-5.412 8.894Zm19.966-4.927c0 6.079-3.97 9.087-8.18 9.087-3.728 0-5.652-1.792-5.652-4.671 0-4.607 5.292-6.847 13.832-7.679v3.263Zm34.156 5.311c0 5.184 2.767 7.806 7.939 7.806h7.937v-5.182h-6.735c-2.044 0-3.128-.897-3.128-3.135v-18.428h8.541v-4.991h-8.541v-9.918h-6.013v9.918h-7.216v4.991h7.216v18.939Zm22.131-3.071c0 7.231 3.728 11.774 10.704 11.774 5.292 0 8.419-3.455 10.103-8.319h3.367c-1.804 2.56-3.006 5.375-3.006 7.422h5.772v-31.736h-6.013v13.821c0 4.607-.481 8.446-2.886 11.454-1.203 1.47-3.007 2.174-5.412 2.174-4.21 0-6.615-2.494-6.615-8.062v-19.387h-6.014v20.859Zm53.762 10.877h6.014V399.11c0-4.607.239-8.382 2.645-11.39 1.323-1.535 3.248-2.303 5.774-2.303 4.209 0 6.734 2.56 6.734 7.998v19.387h6.014v-20.731c0-7.422-3.608-11.901-11.065-11.901-5.653 0-9.141 4.543-10.223 8.254h-3.248c2.045-3.007 3.248-5.374 3.369-11.71v-8.701h-6.014v44.789Zm34.639-15.868c0 9.534 6.614 16.765 15.153 16.765 8.54 0 15.034-7.167 15.034-16.765 0-9.534-6.374-16.765-15.034-16.765-8.659 0-15.153 7.231-15.153 16.765Zm23.933.128c0 7.486-3.367 11.453-8.78 11.453-5.412 0-8.779-3.967-8.779-11.453 0-7.742 3.367-11.709 8.779-11.709 5.292 0 8.78 3.967 8.78 11.709Zm11.305 22.459c0 2.751 2.165 5.759 7.577 5.759h15.635c5.533 0 10.103-3.072 10.103-8.894 0-5.247-4.089-8.894-10.223-8.894h-13.831c-1.804 0-2.766-.704-2.766-2.048 0-1.216 1.082-2.304 2.766-3.008 1.684.961 3.488 1.152 6.014 1.152 7.096 0 12.147-4.478 12.628-11.709l.12-1.535c.241-3.584 1.203-4.287 3.969-4.287h2.646v-4.991h-2.165c-2.886 0-4.69 2.175-4.93 5.246h-2.166c-1.323-3.326-4.69-6.143-10.704-6.143-7.096 0-12.148 5.056-12.148 11.134 0 3.775 1.203 6.142 3.488 7.934v2.24c-3.127 1.279-4.81 3.263-4.81 5.63 0 1.856 1.322 3.2 3.126 3.968v2.24c-2.766 1.215-4.329 3.39-4.329 6.206Zm22.13-27.578c0 4.223-2.646 6.974-6.855 6.974-4.09 0-6.856-2.751-6.856-6.974 0-4.095 2.766-7.038 6.856-7.038 4.089 0 6.855 2.943 6.855 7.038Zm-12.027 28.217c-3.367 0-4.811-.832-4.811-3.326 0-1.792 1.082-3.264 2.285-4.032h14.793c3.007 0 4.811.832 4.811 3.648 0 2.751-1.804 3.71-4.811 3.71h-12.267Zm28.266-15.548c0 5.631 3.968 9.087 10.102 9.087 5.412 0 8.66-3.137 9.863-7.551h2.405c0 5.055 1.322 6.654 6.133 6.654h2.647v-5.182h-3.248c-1.564 0-1.924-.32-1.924-1.792v-14.525c0-6.974-4.209-11.134-12.628-11.134-8.059 0-12.749 4.352-13.952 8.895l5.652 1.92c1.203-3.839 3.97-5.759 8.3-5.759 4.57 0 6.615 2.111 6.615 5.887v.959c-5.894.447-10.825 1.664-14.433 3.647-3.608 1.92-5.532 4.864-5.532 8.894Zm19.965-4.927c0 6.079-3.849 9.087-8.059 9.087-3.849 0-5.653-1.792-5.653-4.671 0-4.607 5.292-6.847 13.712-7.679v3.263Zm16.836 13.117h6.013v-14.14c0-7.743 3.127-11.837 9.983-11.837 1.082 0 2.164.127 3.367.32v-6.208a13.31 13.31 0 0 0-3.007-.32c-5.893 0-8.899 3.584-10.462 9.534h-3.489c1.804-2.815 3.489-6.463 3.489-9.085h-5.894v31.736Z"/>
  <path fill="#4D45D6" fill-rule="evenodd" d="M173.391 21.678H37.245v28.26h48.623v96.059h38.899v-96.06h48.624V21.68Z" clip-rule="evenodd"/>
  <path fill="#4D45D6" fill-rule="evenodd" d="M206.481 145.998c34.094 0 53.544-19.782 53.544-44.262 0-24.303-19.45-44.262-53.544-44.262-33.865 0-53.428 19.959-53.428 44.262 0 24.48 19.563 44.262 53.428 44.262Zm12.701-44.262c0 9.597-5.264 16.002-12.701 16.002-7.208 0-12.585-6.405-12.585-16.002 0-9.42 5.377-16.014 12.585-16.014 7.437 0 12.701 6.594 12.701 16.014Zm167.497-42.389H347.78v23.55c0 14.506-6.978 27.682-19.563 27.682-14.644 0-12.701-22.03-12.701-33.335V59.347h-38.899v37.68c0 9.419-.914 48.971 39.129 48.971 4.691 0 9.153-.942 12.585-2.261 19.678-6.782 25.284-28.071 25.284-46.71h3.89c0 7.524 2.974 47.087-27.23 54.623-19.221 4.699-31.119 0-41.759-5.652l-14.529 28.248c10.64 6.594 31.232 12.246 53.428 10.362 31.119-2.826 59.264-26.375 59.264-61.218V59.347Z" clip-rule="evenodd"/>
  <path fill="#02AAB6" fill-rule="evenodd" d="M125.747 174.792H85.142v54.806c0 27.408.957 48.715-25.437 48.715-15.406 0-20.662-8.122-21.856-20.088L.469 271.207c7.524 26.393 30.932 37.56 59.236 37.56 39.172 0 66.042-19.288 66.042-70.033v-63.942Zm58.879 133.975c27.349 0 37.5-28.424 37.5-52.775h4.061c0 8.109-2.032 21.306-6.092 32.472-.956 2.842-2.985 7.106-5.015 11.167-1.911 3.654-1.076 7.106 5.015 7.106h36.547v-91.351h-40.606v23.348c0 14.212-6.093 31.457-19.23 31.457-15.287 0-14.21-23.336-14.21-35.517v-19.288h-40.605v40.606c0 10.151-.001 52.775 42.635 52.775Zm201.952-93.381h-40.605v25.378c0 12.182-5.134 36.33-18.271 36.33-20.303 0-16.84-33.488-.598-33.488 6.33 0 8.478 6.903 6.329 9.543 11.107 0 16.003-39.782-15.526-39.782-23.288 0-45.023 15.216-45.023 48.715 0 17.246 8.119 46.482 38.574 46.482 33.439 0 40.605-28.221 40.605-52.573h4.061c0 8.109 2.987 50.745-28.422 58.867-20.064 5.266-32.485-.001-43.592-6.091l-15.287 30.442c11.226 7.106 32.722 13.4 55.772 11.166 32.484-3.045 61.983-28.423 61.983-65.972v-69.017Zm14.331 52.978c1.075 17.258 13.018 40.606 37.62 40.606 32.484 0 41.562-28.424 41.562-52.776h4.061c0 8.11-2.033 21.307-6.093 32.473-.955 2.843-2.985 7.106-5.015 11.167-1.792 3.654-1.076 7.105 5.015 7.105h36.547v-91.35H474v25.378c0 12.182-4.061 36.534-17.198 36.534-21.377 0-17.914-33.488-1.672-33.488 6.329 0 8.599 6.7 6.33 9.339 10.988 0 16.003-39.781-15.406-39.781-23.408 0-47.295 17.245-45.145 54.793Zm202.074-54.997c-27.468 0-37.62 28.412-37.62 52.776h-4.061c0-8.121 3.105-25.379 7.166-34.515 3.463-7.512 9.076-16.242 1.432-16.242h-39.052v91.35h40.606v-25.378c0-12.182 7.165-27.397 20.302-27.397 13.257 0 13.375 10.139 13.375 29.427v23.348h40.606v-42.635c0-10.14-.118-50.734-42.754-50.734Zm96.614 95.4c29.379 0 39.532-28.424 39.532-52.775h4.059c0 8.109-2.03 21.305-6.09 32.472-.956 2.842-2.985 7.106-5.015 11.167-1.911 3.654-1.076 7.106 5.015 7.106h36.544v-134.99h-40.605v69.017c0 12.182-4.059 36.534-17.196 36.534-21.378 0-17.677-33.488-1.435-33.488 6.091 0 8.24 6.7 6.091 9.136 11.107 0 16.005-39.578-15.286-39.578-25.318 0-45.263 17.245-45.263 50.733 0 10.151 5.134 44.666 39.649 44.666Zm144.031 0c35.59 0 55.891-21.318 55.891-47.7 0-26.191-20.301-47.7-55.891-47.7-35.231 0-55.774 21.509-55.774 47.7 0 26.382 20.543 47.7 55.774 47.7Zm13.256-47.7c0 10.342-5.493 17.245-13.256 17.245-7.524 0-13.137-6.903-13.137-17.245 0-10.151 5.613-17.257 13.137-17.257 7.763 0 13.256 7.106 13.256 17.257Z" clip-rule="evenodd"/>
  <path fill="#4D45D6" d="M610.319 2.592 593.51 9.173s-.623 1.426-.819 3.501c-.317 3.352.286 4.925.286 4.925s2.604 1.174 7.093 2.221c3.859.901 6.601.699 6.601.699l3.648-17.927Z"/>
  <path fill="#8CE0D5" fill-rule="evenodd" d="M618.306 92.144c2.086-5.83 3.252-13.432 3.442-23.688.366-19.789-7.541-36.163-13.384-45.554-2.984-4.795-8.387-9.768-14.834-13.73a61.317 61.317 0 0 0-11.011-5.307c-2.993-1.088-8.188-2.505-10.995-2.82-9.771-1.102-31.15-.106-45.487 18.796-5.464 7.208-8.848 15.033-10.87 22.315a16.45 16.45 0 0 0-.311.525c-8.036 14.022-12.92 17.644-29.306 29.461-8.765 6.32-35.142 12.21-35.142 12.21s1.161 15.303 11.188 30.791c3.668 5.668 7.559 10.555 12.968 14.519 13.979 10.244 31.804 15.253 43.199 17.458 18.347 3.553 41.324-1.282 54.451-6.658 25.301-10.357 39.048-27.751 46-48.046.03-.092.061-.18.092-.272Z" clip-rule="evenodd"/>
  <path fill="#4D45D6" d="M563.623 21.47c0-2.983 2.382-5.401 5.319-5.401 2.939 0 5.32 2.418 5.32 5.4 0 2.98-2.381 5.4-5.32 5.4-2.937 0-5.319-2.42-5.319-5.4Z"/>
  <path fill="#4D45D6" fill-rule="evenodd" d="M523.752 46.939c2.865-2.358 6.039-5.416 9.212-9.316 10.189-12.522 8.701-20.796 9.764-22.497 1.06-1.698 6.79-.85 14.856-4.456 11.707-5.235 13.93-9.624 13.93-9.624s-25.441-3.849-43.556 14.675c-6.591 6.741-10.424 16.19-12.614 24.01-3.836 4.312-18.576 19.993-38.285 29.748-18.582 9.193-29.781 9.037-39.912 7.544-6.054-.892-21.527-7.346-21.527-7.346-.241-.082-.632-.272-.452.15.972 2.288 4.316 12.073 15.186 24.287 19.7 22.137 41.229 33.093 41.229 33.093s-13.234-12.862-18.218-29.47c11.557 12.275 50.535 24.104 74.101 7.458 14.303-10.103 17.974-23.032 17.354-32.741-.616-9.707-6.728-24.147-21.068-25.515Z" clip-rule="evenodd"/>
  <path fill="#4D45D6" d="m650.919 45.602 11.838 4.64s.439 1.005.578 2.468c.223 2.363-.202 3.471-.202 3.471s-1.834.828-4.996 1.566c-2.718.635-4.649.492-4.649.492l-2.569-12.637Z"/>
  <path fill="#8CE0D5" fill-rule="evenodd" d="M645.294 108.73c-1.47-4.11-2.291-9.47-2.425-16.699-.258-13.95 5.311-25.492 9.426-32.113 2.102-3.38 5.907-6.885 10.448-9.678a43.158 43.158 0 0 1 7.755-3.742c2.108-.766 5.767-1.765 7.744-1.987 6.881-.777 21.939-.075 32.036 13.25 3.848 5.081 6.231 10.597 7.655 15.73.076.123.149.246.22.37 5.659 9.885 9.099 12.439 20.639 20.769 6.174 4.454 24.751 8.608 24.751 8.608s-.818 10.786-7.88 21.704c-2.583 3.996-5.324 7.441-9.133 10.236-9.846 7.221-22.399 10.752-30.425 12.307-12.922 2.504-29.104-.905-38.349-4.694-17.82-7.301-27.502-19.563-32.398-33.869l-.064-.192Z" clip-rule="evenodd"/>
  <path fill="#4D45D6" d="M683.806 58.91c0-2.103-1.677-3.807-3.746-3.807-2.07 0-3.747 1.704-3.747 3.807 0 2.1 1.677 3.806 3.747 3.806 2.069 0 3.746-1.705 3.746-3.806Z"/>
  <path fill="#4D45D6" fill-rule="evenodd" d="M711.887 76.863c-2.017-1.662-4.252-3.817-6.487-6.567-7.176-8.827-6.129-14.66-6.877-15.86-.747-1.196-4.782-.598-10.463-3.14-8.245-3.69-9.811-6.785-9.811-6.785s17.918-2.713 30.676 10.346c4.642 4.751 7.342 11.413 8.884 16.925 2.702 3.04 13.083 14.094 26.964 20.97 13.087 6.48 20.975 6.371 28.11 5.318 4.264-.628 15.161-5.178 15.161-5.178.17-.058.445-.191.319.106-.684 1.612-3.04 8.511-10.696 17.121-13.874 15.605-29.037 23.328-29.037 23.328s9.321-9.067 12.831-20.775c-8.14 8.653-35.592 16.992-52.189 5.258-10.074-7.122-12.659-16.236-12.223-23.08.435-6.843 4.739-17.022 14.838-17.987Z" clip-rule="evenodd"/>
</svg>
