<svg xmlns="http://www.w3.org/2000/svg" width="20" height="20" fill="none" viewBox="0 0 20 20">
  <path fill="#1C1B1F" d="M3.85 15.1c.85-.65 1.8-1.162 2.85-1.537A9.737 9.737 0 0 1 10 13c1.15 0 2.25.188 3.3.563 1.05.374 2 .887 2.85 1.537a7.73 7.73 0 0 0 1.363-2.325A7.838 7.838 0 0 0 18 10c0-2.217-.78-4.104-2.338-5.662C14.104 2.779 12.217 2 10 2s-4.104.78-5.662 2.338C2.779 5.896 2 7.783 2 10c0 .983.163 1.908.487 2.775A7.73 7.73 0 0 0 3.85 15.1ZM10 11c-.983 0-1.813-.338-2.487-1.012C6.838 9.313 6.5 8.483 6.5 7.5c0-.983.338-1.813 1.013-2.487C8.188 4.338 9.017 4 10 4c.983 0 1.813.338 2.488 1.013.675.675 1.012 1.504 1.012 2.487 0 .983-.338 1.813-1.012 2.488C11.813 10.663 10.983 11 10 11Zm0 9a9.738 9.738 0 0 1-3.9-.788 10.099 10.099 0 0 1-3.175-2.137c-.9-.9-1.612-1.958-2.137-3.175A9.738 9.738 0 0 1 0 10c0-1.383.263-2.683.787-3.9a10.099 10.099 0 0 1 2.138-3.175c.9-.9 1.958-1.612 3.175-2.137A9.738 9.738 0 0 1 10 0c1.383 0 2.683.263 3.9.787a10.098 10.098 0 0 1 3.175 2.138c.9.9 1.613 1.958 2.137 3.175A9.738 9.738 0 0 1 20 10a9.738 9.738 0 0 1-.788 3.9 10.098 10.098 0 0 1-2.137 3.175c-.9.9-1.958 1.613-3.175 2.137A9.738 9.738 0 0 1 10 20Zm0-2a7.97 7.97 0 0 0 2.5-.387 7.53 7.53 0 0 0 2.15-1.113 7.53 7.53 0 0 0-2.15-1.113A7.933 7.933 0 0 0 10 15a7.97 7.97 0 0 0-2.5.387A7.53 7.53 0 0 0 5.35 16.5a7.53 7.53 0 0 0 2.15 1.113A7.933 7.933 0 0 0 10 18Zm0-9c.433 0 .792-.142 1.075-.425.283-.283.425-.642.425-1.075 0-.433-.142-.792-.425-1.075C10.792 6.142 10.433 6 10 6c-.433 0-.792.142-1.075.425-.283.283-.425.642-.425 1.075 0 .433.142.792.425 1.075C9.208 8.858 9.567 9 10 9Z"/>
</svg>
