<svg xmlns="http://www.w3.org/2000/svg" width="18" height="20" fill="none" viewBox="0 0 18 20">
  <path fill="#1C1B1F" d="M11.5 16c-.7 0-1.292-.242-1.775-.725C9.242 14.792 9 14.2 9 13.5s.242-1.292.725-1.775C10.208 11.242 10.8 11 11.5 11s1.292.242 1.775.725c.483.483.725 1.075.725 1.775s-.242 1.292-.725 1.775c-.483.483-1.075.725-1.775.725ZM2 20c-.55 0-1.02-.196-1.413-.587A1.926 1.926 0 0 1 0 18V4c0-.55.196-1.02.588-1.412A1.926 1.926 0 0 1 2 2h1V1c0-.283.096-.52.288-.712A.968.968 0 0 1 4 0a.97.97 0 0 1 .713.288A.968.968 0 0 1 5 1v1h8V1a.97.97 0 0 1 .287-.712A.968.968 0 0 1 14 0a.97.97 0 0 1 .713.288A.968.968 0 0 1 15 1v1h1c.55 0 1.02.196 1.413.588.391.391.587.862.587 1.412v14c0 .55-.196 1.02-.587 1.413A1.926 1.926 0 0 1 16 20H2Zm0-2h14V8H2v10ZM2 6h14V4H2v2Z"/>
</svg>
