<svg xmlns="http://www.w3.org/2000/svg" width="20" height="21" fill="none" viewBox="0 0 20 21">
  <path fill="#02AAB6" d="M3 18.167h3.5v-5.834c0-.33.112-.607.335-.83.224-.225.501-.336.832-.336h4.666c.33 0 .608.111.832.335.223.224.335.5.335.831v5.834H17v-10.5l-7-5.25-7 5.25v10.5Zm-2.333 0v-10.5c0-.37.082-.72.248-1.05.165-.33.393-.603.685-.817l7-5.25A2.248 2.248 0 0 1 10 .083c.525 0 .992.156 1.4.467l7 5.25c.292.214.52.486.685.817.166.33.248.68.248 1.05v10.5a2.25 2.25 0 0 1-.685 1.648A2.247 2.247 0 0 1 17 20.5h-4.667c-.33 0-.607-.112-.83-.335a1.129 1.129 0 0 1-.336-.832V13.5H8.833v5.833c0 .33-.111.608-.335.832a1.13 1.13 0 0 1-.831.335H3a2.247 2.247 0 0 1-1.648-.685 2.247 2.247 0 0 1-.685-1.648Z"/>
</svg>
